<svg id="Layer_2" data-name="Layer 2" xmlns="http://www.w3.org/2000/svg" viewBox="0 0 227.66 35.71"><title>Natwest</title><path id="path286" d="M40.24,37.19l4.55,8a.76.76,0,0,0,.26.24.75.75,0,0,0,1-.26L51,36.68a1.27,1.27,0,0,0,0-1.26l-5.25-9.08a.35.35,0,0,0-.29-.16.34.34,0,0,0-.28.15l-4.91,8.53a2.38,2.38,0,0,1-2,1.17h-.09a2.5,2.5,0,0,1,2.11,1.17" transform="translate(-11.17 -11.18)" style="fill:#cf002c"/><path id="path246" d="M166.76,34.24c-.3,1.4-.48,2.36-.54,2.81-.07-.45-.3-1.45-.62-2.83-1.55-6.11-5.5-21.61-5.82-23h-5.25c-.22.94-4.17,16.76-5.74,23-.36,1.42-.59,2.7-.62,2.82,0-.12-.25-1.4-.54-2.81-1.21-6-4.24-21.2-4.6-23-1.1,0-4.91,0-5.48,0,0,0,6.58,31.5,7.33,35h5.42c.27-.94,4.52-17.47,6.12-23.69.33-1.3.55-2.36.59-2.53,0,.19.27,1.24.59,2.5,1.53,5.91,5.49,21.29,6.05,23.73h5.48c.33-1.67,6.7-33.19,7-35l-5.18,0c-.12.76-3.06,16.8-4.23,23" transform="translate(-11.17 -11.18)" style="fill:#281d46"/><path id="path284" d="M28.4,36a.35.35,0,0,0-.28.17.34.34,0,0,0,0,.32l5.25,9.11a1.28,1.28,0,0,0,1.1.63H44.63a1.41,1.41,0,0,0,1.22-.71l.23-.4L41.46,36H28.4Z" transform="translate(-11.17 -11.18)" style="fill:#dd3e56"/><path id="path282" d="M21.38,36H12.21a.72.72,0,0,0-.34.08.75.75,0,0,0-.28,1l4.88,8.45a1.27,1.27,0,0,0,1.09.64H28a.34.34,0,0,0,.29-.48L23.4,37.23a2.38,2.38,0,0,1,0-2.33l0-.08A2.49,2.49,0,0,1,21.38,36" transform="translate(-11.17 -11.18)" style="fill:#cf002c"/><path id="path248" d="M129.52,11.18c-.75.26-3.82,1.32-5.2,1.82,0,0,0,5.45,0,6.95h-3.84v4.58h3.84V40.07c0,5.3,3.38,6.79,6.23,6.79a20.52,20.52,0,0,0,5.49-.61V41.7a9.56,9.56,0,0,1-2.78.42c-2,0-3.71-.4-3.71-3.34V24.53H136V20h-6.5c0-.54,0-7.23,0-8.77" transform="translate(-11.17 -11.18)" style="fill:#281d46"/><path id="path278" d="M31.77,20.35l4.62-7.92a.76.76,0,0,0,.08-.34.75.75,0,0,0-.75-.76H26a1.27,1.27,0,0,0-1.1.62L19.63,21a.34.34,0,0,0,0,.33.33.33,0,0,0,.27.17h9.84a2.38,2.38,0,0,1,2,1.17l0,.07a2.51,2.51,0,0,1,0-2.41" transform="translate(-11.17 -11.18)" style="fill:#cf002c"/><path id="path280" d="M28.31,26.39a.33.33,0,0,0,0-.33.33.33,0,0,0-.26-.17H17.52a1.27,1.27,0,0,0-1.09.63l-5.08,8.82a1.42,1.42,0,0,0,0,1.41l.23.4,11.11-.93.75-1.4Z" transform="translate(-11.17 -11.18)" style="fill:#dd3e56"/><path id="path250" d="M87.36,11.27v24.1c0,.33,0,1.25,0,2.12-.43-.86-.93-1.63-1.08-1.89-.45-.8-14.2-22.9-15-24.34H66.05c0,.87,0,34.64,0,35h5.1v-24c0-.51,0-1.45-.05-2.06.25.54.73,1.33,1.08,1.9s14.33,22.79,15.15,24.2c.82,0,4.18,0,5.12,0,0-1,0-33.92,0-35H87.36" transform="translate(-11.17 -11.18)" style="fill:#281d46"/><path id="path268" d="M36.69,31.19a.34.34,0,0,0,.28.15.33.33,0,0,0,.28-.14l5.27-9.1a1.28,1.28,0,0,0,0-1.26L37.41,12a1.41,1.41,0,0,0-1.22-.7h-.46l-4.84,9.92.93,1.52Z" transform="translate(-11.17 -11.18)" style="fill:#dd3e56"/><path id="path252" d="M107.8,19.39a20.93,20.93,0,0,0-7.93,1.38v4.66a21,21,0,0,1,7.05-1.36c5.83,0,5.87,2.56,5.87,5.37h-6c-6.81,0-10.46,4.14-10.46,8.62,0,6.16,5.08,8.8,9.18,8.8a9.85,9.85,0,0,0,7.3-3.17c0,.78,0,1.39,0,2.6H118V28.34c0-8.24-7.33-8.95-10.2-8.95m5,19.48a8.5,8.5,0,0,1-6.56,3.33c-3,0-4.61-1.88-4.61-4.15S103.33,34,107.14,34h5.65v4.89Z" transform="translate(-11.17 -11.18)" style="fill:#281d46"/><path id="path266" d="M188.87,19.47c-4,0-11.89,2.62-11.89,13.76,0,11.38,8,13.63,12.3,13.63A16.74,16.74,0,0,0,197.6,45V40.27a15.12,15.12,0,0,1-7.51,2c-6.07,0-7.63-4.17-7.63-7.15H199.8c1-6.72-1.79-15.61-10.93-15.61m-6.41,11.21c0-2.92,2-6.62,6.14-6.62,4.46,0,5.92,4.08,5.92,6.62Z" transform="translate(-11.17 -11.18)" style="fill:#281d46"/><path id="path262" d="M215.82,31.47c-.86-.37-1.88-.8-3.38-1.47s-3.8-1.55-3.8-3.46c0-1.71,1.71-2.56,4.15-2.56a15.35,15.35,0,0,1,7.14,1.8V20.9a19.3,19.3,0,0,0-7.35-1.41c-7,0-9.32,4.38-9.32,7.27,0,4.51,3.21,6.15,5,7,2.08.95,3.15,1.4,4.72,2.08,2.31,1,3.55,1.58,3.55,3.46,0,1.67-1.37,3-4.66,3a18.89,18.89,0,0,1-8.21-2.2v5a20.85,20.85,0,0,0,8.38,1.79c6.65,0,9.88-4.1,9.88-7.76s-1.78-5.78-6.12-7.65" transform="translate(-11.17 -11.18)" style="fill:#281d46"/><path id="path264" d="M238.82,24.53c0-.57,0-4.41,0-4.58h-6.5c0-.54,0-7.23,0-8.77-.75.26-3.83,1.32-5.21,1.82V20h-3.84v4.58h3.84V40.07c0,5.3,3.38,6.79,6.23,6.79a20.52,20.52,0,0,0,5.49-.61V41.7a9.56,9.56,0,0,1-2.78.42c-2,0-3.71-.4-3.71-3.34V24.53h6.49Z" transform="translate(-11.17 -11.18)" style="fill:#281d46"/></svg>