<?xml version="1.0" encoding="UTF-8" standalone="no"?>
<!-- Created with Inkscape (http://www.inkscape.org/) -->
<svg xmlns:dc="http://purl.org/dc/elements/1.1/" xmlns:cc="http://creativecommons.org/ns#" xmlns:rdf="http://www.w3.org/1999/02/22-rdf-syntax-ns#" xmlns:svg="http://www.w3.org/2000/svg" xmlns="http://www.w3.org/2000/svg" xmlns:sodipodi="http://sodipodi.sourceforge.net/DTD/sodipodi-0.dtd" xmlns:inkscape="http://www.inkscape.org/namespaces/inkscape" width="232.54866" height="63.39978" viewBox="0 0 61.528499 16.774525" version="1.1" id="svg1383" inkscape:version="0.92.0 r15299" sodipodi:docname="royal bank of scotland.svg">
  <defs id="defs1377">
    <clipPath id="clipPath210" clipPathUnits="userSpaceOnUse">
      <path inkscape:connector-curvature="0" id="path208" d="M 0,0 H 595.276 V 841.89 H 0 Z"/>
    </clipPath>
    <clipPath id="clipPath176" clipPathUnits="userSpaceOnUse">
      <path inkscape:connector-curvature="0" id="path174" d="M 0,0 H 595.276 V 841.89 H 0 Z"/>
    </clipPath>
    <clipPath id="clipPath152" clipPathUnits="userSpaceOnUse">
      <path inkscape:connector-curvature="0" id="path150" d="M 0,0 H 595.276 V 841.89 H 0 Z"/>
    </clipPath>
    <clipPath id="clipPath122" clipPathUnits="userSpaceOnUse">
      <path inkscape:connector-curvature="0" id="path120" d="M 0,0 H 595.276 V 841.89 H 0 Z"/>
    </clipPath>
  </defs>
  <sodipodi:namedview id="base" pagecolor="#ffffff" bordercolor="#666666" borderopacity="1.0" inkscape:pageopacity="0.0" inkscape:pageshadow="2" inkscape:zoom="3.8739157" inkscape:cx="115.77433" inkscape:cy="31.199884" inkscape:document-units="mm" inkscape:current-layer="layer1" showgrid="false" fit-margin-top="0" fit-margin-left="0" fit-margin-right="0" fit-margin-bottom="0" units="px" inkscape:window-width="1280" inkscape:window-height="744" inkscape:window-x="-4" inkscape:window-y="-4" inkscape:window-maximized="1"/>
  <metadata id="metadata1380">
    <rdf:RDF>
      <cc:Work rdf:about="">
        <dc:format>image/svg+xml</dc:format>
        <dc:type rdf:resource="http://purl.org/dc/dcmitype/StillImage"/>
        <dc:title/>
      </cc:Work>
    </rdf:RDF>
  </metadata>
  <g inkscape:label="Layer 1" inkscape:groupmode="layer" id="layer1" transform="translate(-63.106137,-172.81973)">
    <g id="g1607" transform="translate(0.13229178,-0.13228781)">
      <g transform="matrix(0.35277777,0,0,-0.35277777,70.164515,178.45455)" id="g124">
        <path inkscape:connector-curvature="0" id="path126" style="fill:#15366f;fill-opacity:1;fill-rule:nonzero;stroke:none" d="M 0,0 C -3.93,-1.405 -5.283,-5.211 -5.283,-5.211 -5.812,-6.615 -7.217,-7.67 -8.801,-7.67 h -7.453 c -2.053,0 -3.754,1.7 -3.754,3.747 0,2.051 1.407,3.689 3.754,3.689 l 5.911,-0.01 -8.553,8.556 c -1.463,1.465 -1.463,3.807 0,5.265 1.469,1.462 3.817,1.462 5.281,0 l 8.508,-8.472 v 5.84 c 0,2.047 1.644,3.742 3.755,3.742 2.057,0 3.7,-1.695 3.7,-3.742 V 3.512 C 2.348,1.932 1.408,0.466 0,0 m -1.352,-31.491 c -2.051,0 -3.697,1.351 -3.637,3.689 l 0.011,5.934 -8.578,-8.565 c -1.464,-1.467 -3.871,-1.467 -5.28,0 -1.465,1.459 -1.465,3.86 0,5.262 l 8.485,8.493 h -5.844 c -2.112,0 -3.753,1.696 -3.753,3.74 0,2.05 1.641,3.748 3.753,3.748 h 7.451 c 1.583,0 2.992,-0.935 3.522,-2.342 1.35,-3.976 5.16,-5.322 5.16,-5.322 1.47,-0.527 2.468,-1.873 2.468,-3.512 v -7.436 c 0,-2.049 -1.646,-3.689 -3.758,-3.689 m 23.994,14.869 -5.923,0.006 8.561,-8.555 c 1.467,-1.46 1.467,-3.803 0,-5.262 -1.464,-1.467 -3.814,-1.467 -5.279,0 l -8.507,8.486 v -5.855 c 0,-2.227 -1.703,-3.748 -3.755,-3.748 -2.055,0 -3.757,1.699 -3.757,3.748 v 7.436 c 0,1.581 0.998,3.044 2.408,3.512 3.929,1.346 5.278,5.206 5.278,5.206 0.528,1.402 1.937,2.458 3.521,2.458 h 7.453 c 2.055,0 3.754,-1.698 3.754,-3.748 0,-2.044 -1.525,-3.684 -3.754,-3.684 m 0.059,9.012 h -7.453 c -1.583,0 -3.052,0.937 -3.52,2.341 C 10.377,-1.347 6.507,0.059 6.507,0.059 5.098,0.587 4.041,1.932 4.041,3.572 v 7.432 c 0,2.047 1.701,3.683 3.757,3.683 2.053,0 3.696,-1.52 3.696,-3.683 l 0.002,-5.956 8.563,8.587 c 1.467,1.462 3.815,1.462 5.281,0 1.467,-1.458 1.467,-3.858 0,-5.323 l -8.448,-8.428 h 5.809 c 2.052,0 3.753,-1.698 3.753,-3.747 0,-2.049 -1.701,-3.747 -3.753,-3.747"/>
      </g>
      <g transform="matrix(0.35277777,0,0,-0.35277777,84.363679,177.08264)" id="g128">
        <path inkscape:connector-curvature="0" id="path130" style="fill:#15366f;fill-opacity:1;fill-rule:nonzero;stroke:none" d="m 0,0 h 0.284 l 4.695,-7.5 h 4.154 l -4.051,6.081 c -0.414,0.616 -0.905,1.345 -1.395,1.99 2.425,0.414 4.283,2.36 4.283,4.941 0,3.561 -2.477,5.282 -6.319,5.282 -2.015,0 -3.639,-0.025 -5.008,-0.103 V -7.5 H 0 Z M 0,7.982 C 0.334,8.036 0.825,8.059 1.315,8.059 3.429,8.059 4.461,6.851 4.461,5.177 4.461,3.552 3.222,2.43 1.211,2.43 0.696,2.43 0.232,2.454 0,2.48 Z"/>
      </g>
      <g transform="matrix(0.35277777,0,0,-0.35277777,90.028478,175.11449)" id="g132">
        <path inkscape:connector-curvature="0" id="path134" style="fill:#15366f;fill-opacity:1;fill-rule:nonzero;stroke:none" d="m 0,0 c -3.895,0 -6.554,-2.887 -6.554,-6.888 0,-4.565 2.376,-6.447 6.011,-6.447 3.821,0 6.556,2.888 6.556,6.913 C 6.013,-2.01 3.665,0 0,0 m -0.283,-10.525 c -1.884,0 -2.863,1.339 -2.863,3.974 0,2.629 1.445,3.767 2.916,3.767 1.933,0 2.837,-1.341 2.837,-3.821 0,-2.605 -1.264,-3.92 -2.89,-3.92"/>
      </g>
      <g transform="matrix(0.35277777,0,0,-0.35277777,95.130809,179.98388)" id="g136">
        <path inkscape:connector-curvature="0" id="path138" style="fill:#15366f;fill-opacity:1;fill-rule:nonzero;stroke:none" d="M 0,0 5.082,13.545 H 1.547 L 0.026,9.184 C -0.387,8 -0.93,6.269 -1.213,5.109 H -1.24 c -0.283,1.16 -0.643,2.425 -1.005,3.534 l -1.729,4.902 H -7.665 L -2.918,0.723 -3.33,-0.413 c -0.697,-2.01 -1.83,-2.526 -2.914,-2.526 -0.542,0 -1.135,0.102 -1.624,0.258 L -8.256,-5.52 c 0.49,-0.104 1.263,-0.181 1.806,-0.181 2.966,0 4.774,1.264 6.45,5.701"/>
      </g>
      <g transform="matrix(0.35277777,0,0,-0.35277777,98.451859,179.81885)" id="g140">
        <path inkscape:connector-curvature="0" id="path142" style="fill:#15366f;fill-opacity:1;fill-rule:nonzero;stroke:none" d="M 0,0 C 1.817,0 3.322,0.915 3.996,2.252 V 0.256 H 7.144 C 7.068,1.311 7.041,2.527 7.041,3.556 v 5.291 c 0,2.864 -1.185,4.515 -5.157,4.515 -1.733,0 -3.563,-0.363 -4.852,-0.879 l 0.54,-2.527 c 1.134,0.492 2.71,0.877 3.871,0.877 1.703,0 2.294,-0.695 2.294,-2.247 V 8.124 C -0.751,8.124 -3.666,6.706 -3.666,3.66 -3.666,1.57 -2.322,0 0,0 M 3.737,5.957 V 5.619 c 0,-1.546 -1.08,-3.092 -2.681,-3.092 -0.957,0 -1.547,0.673 -1.547,1.496 0,1.107 0.902,1.934 4.228,1.934"/>
      </g>
      <path inkscape:connector-curvature="0" id="path144" style="fill:#15366f;fill-opacity:1;fill-rule:nonzero;stroke:none;stroke-width:0.35277778" d="m 103.04753,173.08451 h -1.16523 v 6.64422 h 1.16523 z"/>
      <g transform="matrix(0.35277777,0,0,-0.35277777,110.10326,177.68821)" id="g154">
        <path inkscape:connector-curvature="0" id="path156" style="fill:#15366f;fill-opacity:1;fill-rule:nonzero;stroke:none" d="M 0,0 C 0,1.936 -1.264,3.588 -3.121,3.978 V 4.03 c 1.675,0.67 2.631,2.257 2.631,3.986 0,2.785 -2.09,4.392 -5.83,4.392 -2.117,0 -4.308,-0.054 -5.779,-0.128 V -5.784 c 2.193,0 3.92,-0.05 5.083,-0.05 C -1.912,-5.834 0,-2.685 0,0 m -8.746,9.674 c 0.541,0.025 1.161,0.051 1.883,0.051 2.038,0 2.813,-0.96 2.813,-2.249 0,-1.549 -1.034,-2.57 -3.33,-2.57 -0.539,0 -0.953,0 -1.366,0.028 z m 0,-7.295 c 0.362,0.025 1.237,0.025 1.471,0.025 2.297,0 3.69,-0.856 3.69,-2.508 0,-1.522 -1.111,-3.023 -3.304,-3.023 -0.62,0 -1.444,0.053 -1.857,0.079 z"/>
      </g>
      <g transform="matrix(0.35277777,0,0,-0.35277777,110.78264,178.52782)" id="g158">
        <path inkscape:connector-curvature="0" id="path160" style="fill:#15366f;fill-opacity:1;fill-rule:nonzero;stroke:none" d="m 0,0 c 0,-2.09 1.342,-3.66 3.667,-3.66 1.817,0 3.323,0.915 3.996,2.254 v -1.998 h 3.148 c -0.078,1.056 -0.102,2.272 -0.102,3.301 v 5.29 c 0,2.864 -1.187,4.515 -5.161,4.515 C 3.82,9.702 1.988,9.34 0.695,8.823 L 1.238,6.296 c 1.137,0.493 2.709,0.877 3.869,0.877 1.705,0 2.299,-0.695 2.299,-2.246 V 4.464 C 2.918,4.464 0,3.046 0,0 m 7.406,1.959 c 0,-1.546 -1.084,-3.091 -2.683,-3.091 -0.955,0 -1.548,0.672 -1.548,1.495 0,1.108 0.9,1.934 4.231,1.934 z"/>
      </g>
      <g transform="matrix(0.35277777,0,0,-0.35277777,116.67477,177.54453)" id="g162">
        <path inkscape:connector-curvature="0" id="path164" style="fill:#15366f;fill-opacity:1;fill-rule:nonzero;stroke:none" d="m 0,0 c 0,2.247 1.314,4.128 2.967,4.128 1.238,0 1.598,-0.799 1.598,-2.116 v -8.203 h 3.276 v 9.005 c 0,2.245 -0.927,4.074 -3.819,4.074 -1.963,0 -3.394,-0.94 -4.204,-2.297 V 6.63 H -3.303 V -6.191 H 0 Z"/>
      </g>
      <path d="m 121.51283,177.63832 1.40159,2.09021 h 1.45556 l -1.78894,-2.4571 1.67181,-2.06587 h -1.42063 l -1.31939,1.66159 v -3.78284 h -1.16522 v 6.64422 h 1.16522 z" style="fill:#15366f;fill-opacity:1;fill-rule:nonzero;stroke:none;stroke-width:0.35277778" id="path168" inkscape:connector-curvature="0"/>
      <g transform="matrix(0.35277777,0,0,-0.35277777,85.154501,184.87035)" id="g178">
        <path inkscape:connector-curvature="0" id="path180" style="fill:#15366f;fill-opacity:1;fill-rule:nonzero;stroke:none" d="m 0,0 c -3.895,0 -6.552,-2.891 -6.552,-6.891 0,-4.567 2.375,-6.448 6.011,-6.448 3.817,0 6.553,2.89 6.553,6.913 C 6.012,-2.015 3.664,0 0,0 m -0.282,-10.529 c -1.884,0 -2.866,1.344 -2.866,3.972 0,2.634 1.445,3.77 2.917,3.77 1.935,0 2.839,-1.342 2.839,-3.82 0,-2.604 -1.265,-3.922 -2.89,-3.922"/>
      </g>
      <g transform="matrix(0.35277777,0,0,-0.35277777,88.463345,184.60238)" id="g182">
        <path inkscape:connector-curvature="0" id="path184" style="fill:#15366f;fill-opacity:1;fill-rule:nonzero;stroke:none" d="M 0,0 V -1.056 H -2.247 V -3.612 H 0 V -13.88 H 3.275 V -3.612 H 6.27 v 2.556 H 3.275 v 1.083 c 0,1.701 0.644,2.451 2.091,2.451 0.486,0 1.083,-0.052 1.599,-0.233 L 7.197,4.954 C 6.524,5.108 5.803,5.163 5.107,5.163 1.599,5.163 0,3.458 0,0"/>
      </g>
      <g transform="matrix(0.35277777,0,0,-0.35277777,93.920287,184.78935)" id="g186">
        <path inkscape:connector-curvature="0" id="path188" style="fill:#15366f;fill-opacity:1;fill-rule:nonzero;stroke:none" d="m 0,0 c 0,1.236 0.902,2.088 2.862,2.088 1.032,0 2.039,-0.18 2.995,-0.489 L 6.165,4.542 C 5.186,4.747 3.971,4.873 3.019,4.873 c -4.207,0 -6.581,-2.14 -6.581,-5.235 0,-5.729 7.326,-4.694 7.326,-8.021 0,-1.628 -1.34,-2.273 -2.915,-2.273 -1.392,0 -2.682,0.287 -3.792,0.751 l -0.36,-3.224 c 1.16,-0.312 2.477,-0.467 4.024,-0.467 4.025,0 6.735,2.401 6.735,5.625 C 7.456,-2.451 0,-3.097 0,0"/>
      </g>
      <g transform="matrix(0.35277777,0,0,-0.35277777,99.314048,188.56693)" id="g190">
        <path inkscape:connector-curvature="0" id="path192" style="fill:#15366f;fill-opacity:1;fill-rule:nonzero;stroke:none" d="m 0,0 c -2.193,0 -2.99,1.523 -2.99,3.715 0,2.377 1.004,3.95 2.964,3.95 0.852,0 1.703,-0.205 2.4,-0.489 l 0.515,2.836 c -0.825,0.286 -1.832,0.439 -2.811,0.439 -4.438,0 -6.529,-3.068 -6.529,-7.068 0,-4.362 2.221,-6.22 5.779,-6.22 1.241,0 2.608,0.209 3.614,0.593 L 2.502,0.52 C 1.755,0.182 0.878,0 0,0"/>
      </g>
      <g transform="matrix(0.35277777,0,0,-0.35277777,102.92134,184.87035)" id="g194">
        <path inkscape:connector-curvature="0" id="path196" style="fill:#15366f;fill-opacity:1;fill-rule:nonzero;stroke:none" d="m 0,0 c -3.894,0 -6.554,-2.891 -6.554,-6.891 0,-4.567 2.375,-6.448 6.012,-6.448 3.82,0 6.555,2.89 6.555,6.913 C 6.013,-2.015 3.663,0 0,0 m -0.283,-10.529 c -1.885,0 -2.865,1.344 -2.865,3.972 0,2.634 1.443,3.77 2.917,3.77 1.934,0 2.837,-1.342 2.837,-3.82 0,-2.604 -1.263,-3.922 -2.889,-3.922"/>
      </g>
      <g transform="matrix(0.35277777,0,0,-0.35277777,107.9068,188.59342)" id="g198">
        <path inkscape:connector-curvature="0" id="path200" style="fill:#15366f;fill-opacity:1;fill-rule:nonzero;stroke:none" d="M 0,0 C -1.136,0 -1.52,0.465 -1.52,2.117 V 7.74 h 3.121 v 2.556 H -1.52 v 5.371 L -4.798,14.791 V 10.296 H -7.017 V 7.74 h 2.219 v -6.5 c 0,-2.994 0.878,-4.026 3.714,-4.026 0.903,0 1.963,0.153 2.789,0.362 L 1.471,0.181 C 1.033,0.052 0.544,0 0,0"/>
      </g>
      <path inkscape:connector-curvature="0" id="path202" style="fill:#15366f;fill-opacity:1;fill-rule:nonzero;stroke:none;stroke-width:0.35277778" d="m 109.2483,189.49891 h 1.16452 v -6.64493 h -1.16452 z"/>
      <g transform="matrix(0.35277777,0,0,-0.35277777,114.86347,186.46539)" id="g212">
        <path inkscape:connector-curvature="0" id="path214" style="fill:#15366f;fill-opacity:1;fill-rule:nonzero;stroke:none" d="m 0,0 c 0,2.862 -1.185,4.513 -5.16,4.513 -1.726,0 -3.559,-0.361 -4.848,-0.878 l 0.54,-2.526 c 1.138,0.488 2.709,0.875 3.87,0.875 1.705,0 2.296,-0.694 2.296,-2.244 v -0.464 c -4.489,0 -7.403,-1.421 -7.403,-4.463 0,-2.092 1.342,-3.664 3.662,-3.664 1.823,0 3.331,0.922 4,2.26 V -8.594 H 0.106 C 0.028,-7.534 0,-6.324 0,-5.293 Z m -3.302,-3.226 c 0,-1.55 -1.082,-3.098 -2.68,-3.098 -0.955,0 -1.549,0.673 -1.549,1.499 0,1.108 0.902,1.934 4.229,1.934 z"/>
      </g>
      <g transform="matrix(0.35277777,0,0,-0.35277777,118.2259,184.88386)" id="g216">
        <path inkscape:connector-curvature="0" id="path218" style="fill:#15366f;fill-opacity:1;fill-rule:nonzero;stroke:none" d="m 0,0 c -1.965,0 -3.398,-0.944 -4.206,-2.3 v 2.042 h -3.121 v -12.824 h 3.303 v 6.191 c 0,2.246 1.315,4.13 2.965,4.13 1.239,0 1.601,-0.799 1.601,-2.114 v -8.207 H 3.82 v 9.005 C 3.82,-1.832 2.89,0 0,0"/>
      </g>
      <g transform="matrix(0.35277777,0,0,-0.35277777,123.214,182.84914)" id="g220">
        <path inkscape:connector-curvature="0" id="path222" style="fill:#15366f;fill-opacity:1;fill-rule:nonzero;stroke:none" d="m 0,0 v -5.885 c -0.567,0.079 -1.082,0.102 -1.625,0.102 -4.259,0 -6.787,-2.99 -6.787,-7.327 0,-3.663 1.55,-6.01 4.671,-6.01 1.871,0 3.242,0.919 3.946,2.238 v -1.955 H 3.277 V 0 Z m 0,-12.182 c 0,-2.191 -1.034,-4.205 -2.762,-4.205 -1.496,0 -2.191,1.241 -2.191,3.639 0,3.175 1.34,4.36 3.224,4.36 0.566,0 1.137,-0.077 1.729,-0.207 z"/>
      </g>
    </g>
  </g>
</svg>