<svg xmlns="http://www.w3.org/2000/svg" viewBox="0 0 215.73 38.8"><title>Santander</title><path d="M39.39,12.71c0,4.77,8.11,10.06,8.11,15.51a3.27,3.27,0,0,1-.22,1.09c7.58,1.58,13,5.29,13,9.65,0,5.86-9.58,10.66-21.44,10.7-.08,0-.15,0-.23,0-11.75,0-21.29-4.66-21.29-10.47,0-4.35,5.82-7.89,12.84-9.76,0,2.4,8,10,8.18,13.1a4.41,4.41,0,0,1,0,.56,1.8,1.8,0,0,1,0,.45C40,42.64,40,39.82,40,39.82c0-6.68-7.77-9.65-7.77-16.22,0-2.55,1.2-4.43,2.29-5v1.84c0,4.77,8.41,10.1,8.41,14.46v1.43c2-.75,2-4.32,2-4.32,0-6-7.81-9.35-7.81-16.22,0-2.55,1.2-4.43,2.29-5v1.84" transform="translate(-17.27 -10.87)" style="fill:#fe0000"/><path d="M77.31,47.82a21.22,21.22,0,0,1-7.06-1.16v-7.1h1c.53,3.76,3.38,6.61,6.65,6.61s5.56-1.8,5.56-4.65c0-3-3-4.43-5.07-5.44L75.47,34.6c-2.78-1.39-5-3.64-5-6.8,0-3.94,2.93-7.32,8.52-7.32a20.7,20.7,0,0,1,7,1.28v6.34h-1c-.6-3.38-2.48-6-6.31-6-2.85,0-4.54,2-4.54,3.94,0,2.59,1.8,3.75,3.9,4.81l2.93,1.46c2.67,1.35,6,3.61,6,7.43,0,4.88-3.38,8.11-9.57,8.11" transform="translate(-17.27 -10.87)" style="fill:#fe0000"/><path d="M96.23,40.08a3,3,0,0,0-2.18,2.78,2.42,2.42,0,0,0,2.52,2.55,5.76,5.76,0,0,0,3.19-1.28V38.58l-3.53,1.5m-1.54,7.58a4,4,0,0,1-4.21-4.21c0-1.8,1.31-3.19,4.21-4.24l5.07-1.84V35.8C99.76,33.44,98.67,32,97,32a3.37,3.37,0,0,0-2.82,1.46,2.26,2.26,0,0,0-.26,1.2A3.51,3.51,0,0,0,94.36,36l-2.48,1.13a4.5,4.5,0,0,1-.68-2.1c0-.15,0-.3,0-.41.19-1.35,1.35-2.25,2.93-3.19A7.34,7.34,0,0,1,98,30.25c4.73,0,5.56,3.76,5.56,5V43c0,1.24.11,2,1.13,2a2.14,2.14,0,0,0,.9-.15l.9-.3v1.13l-5.26,2a3.76,3.76,0,0,1-1.31-2.44C98.64,46.28,96.5,47.67,94.69,47.67Z" transform="translate(-17.27 -10.87)" style="fill:#fe0000"/><path d="M107.61,47.29v-.9l1.24-.23a1.49,1.49,0,0,0,1.28-1.46v-10c0-.86-.41-1.31-1.16-1.31a2.47,2.47,0,0,0-.86.15l-.49.19V32.57L113,30.25h.79V33a7.48,7.48,0,0,1,5.33-2.78c3.83,0,5.67,2.74,5.67,5.93V44.7a1.49,1.49,0,0,0,1.31,1.46l1.28.23v.9h-8.94v-.9l1.24-.23a1.56,1.56,0,0,0,1.35-1.46V36.22c0-1.13-.3-3.64-3.31-3.64a6,6,0,0,0-3.87,1.76V44.7a1.56,1.56,0,0,0,1.35,1.46l1.24.23v.9h-8.86" transform="translate(-17.27 -10.87)" style="fill:#fe0000"/><path d="M140.35,32.54h-5.26v9.31c0,2.06,1.09,3.19,2.67,3.19a5.64,5.64,0,0,0,2.59-.71l.41.9-3.38,2.14a8.71,8.71,0,0,1-1,.11c-3.27,0-5-1.92-5-6v-9H128.6V31.6a11.1,11.1,0,0,0,5.75-5.44h.75v4.77H141l-.68,1.61" transform="translate(-17.27 -10.87)" style="fill:#fe0000"/><path d="M148.23,40.08A3,3,0,0,0,146,42.86a2.43,2.43,0,0,0,2.52,2.55,5.76,5.76,0,0,0,3.19-1.28V38.58l-3.53,1.5m-1.54,7.58a4,4,0,0,1-4.21-4.21c0-1.8,1.32-3.19,4.21-4.24l5.07-1.84V35.8c0-2.37-1.09-3.83-2.74-3.83a3.37,3.37,0,0,0-2.82,1.46,2.26,2.26,0,0,0-.26,1.2,3.51,3.51,0,0,0,.41,1.39l-2.48,1.13a4.49,4.49,0,0,1-.68-2.1c0-.15,0-.3,0-.41.19-1.35,1.35-2.25,2.93-3.19a7.35,7.35,0,0,1,3.79-1.2c4.73,0,5.56,3.76,5.56,5V43c0,1.24.11,2,1.13,2a2.14,2.14,0,0,0,.9-.15l.9-.3v1.13l-5.26,2a3.76,3.76,0,0,1-1.31-2.44c-1.24,1-3.38,2.44-5.18,2.44Z" transform="translate(-17.27 -10.87)" style="fill:#fe0000"/><path d="M159.6,47.29v-.9l1.24-.23a1.49,1.49,0,0,0,1.28-1.46v-10c0-.86-.41-1.31-1.16-1.31a2.48,2.48,0,0,0-.86.15l-.49.19V32.57L165,30.25h.79V33a7.48,7.48,0,0,1,5.33-2.78c3.83,0,5.67,2.74,5.67,5.93V44.7a1.49,1.49,0,0,0,1.32,1.46l1.27.23v.9h-8.94v-.9l1.24-.23A1.56,1.56,0,0,0,173,44.7V36.22c0-1.13-.3-3.64-3.3-3.64a6,6,0,0,0-3.87,1.76V44.7a1.56,1.56,0,0,0,1.35,1.46l1.24.23v.9H159.6" transform="translate(-17.27 -10.87)" style="fill:#fe0000"/><path d="M190.62,31.82c-2.7,0-5.48,1.73-5.48,6.76,0,4.2,2.1,6.76,5.41,6.76a4.06,4.06,0,0,0,3.53-1.76V33.81a3.57,3.57,0,0,0-3.46-2m-1.69,15.84c-3.53,0-7.77-2.63-7.77-8.33a9,9,0,0,1,9-9.09,9.84,9.84,0,0,1,3.87.71v-8.6c0-.9-.49-1.16-1.09-1.16a3.43,3.43,0,0,0-1.05.19l-.75.26V20.52L197,18h.79V42.79c0,1.43.23,2.25,1.24,2.25a2.14,2.14,0,0,0,.9-.15l.9-.3v1.13l-5.26,2a4,4,0,0,1-1.43-2.48,7.2,7.2,0,0,1-5.26,2.48Z" transform="translate(-17.27 -10.87)" style="fill:#fe0000"/><path d="M214,36.07V36c0-2.82-1.58-4.17-3.45-4.17-2.1,0-3.68,1.39-4.13,4.24H214m-7.7,1.54v.19c0,5,2.82,7.51,6.38,7.51a7.84,7.84,0,0,0,4.77-1.69v1.5a9.74,9.74,0,0,1-6.61,2.55c-5.86,0-8.45-4.39-8.45-8.56A8.64,8.64,0,0,1,211,30.25a6.73,6.73,0,0,1,7,6.87v.49Z" transform="translate(-17.27 -10.87)" style="fill:#fe0000"/><path d="M220.2,47.29v-.9l1.24-.23a1.52,1.52,0,0,0,1.27-1.46v-10c0-.86-.41-1.31-1.16-1.31a2.47,2.47,0,0,0-.86.15l-.49.19V32.57l5.33-2.33h.79v3.64c1.35-2.63,3-3.72,4.8-3.72,1.5,0,1.88.38,1.88.38v4h-.75a1.83,1.83,0,0,0-2-1.58,3.86,3.86,0,0,0-3.76,2.52V44.7a1.67,1.67,0,0,0,1.46,1.46l1.8.23v.9H220.2" transform="translate(-17.27 -10.87)" style="fill:#fe0000"/></svg>